<?xml version="1.0" standalone="no"?><svg xmlns="http://www.w3.org/2000/svg" viewBox="0 0 1440 320"><path fill="#2dd4bf" fill-opacity="1" d="M0,32L30,64C60,96,120,160,180,160C240,160,300,96,360,112C420,128,480,224,540,224C600,224,660,128,720,85.3C780,43,840,53,900,74.7C960,96,1020,128,1080,165.3C1140,203,1200,245,1260,245.3C1320,245,1380,203,1410,181.3L1440,160L1440,320L1410,320C1380,320,1320,320,1260,320C1200,320,1140,320,1080,320C1020,320,960,320,900,320C840,320,780,320,720,320C660,320,600,320,540,320C480,320,420,320,360,320C300,320,240,320,180,320C120,320,60,320,30,320L0,320Z"></path></svg>