<?xml version="1.0" standalone="no"?><svg xmlns="http://www.w3.org/2000/svg" viewBox="0 0 1440 320"><path fill="#2dd4bf" fill-opacity="1" d="M0,224L30,234.7C60,245,120,267,180,245.3C240,224,300,160,360,138.7C420,117,480,139,540,160C600,181,660,203,720,208C780,213,840,203,900,186.7C960,171,1020,149,1080,149.3C1140,149,1200,171,1260,186.7C1320,203,1380,213,1410,218.7L1440,224L1440,320L1410,320C1380,320,1320,320,1260,320C1200,320,1140,320,1080,320C1020,320,960,320,900,320C840,320,780,320,720,320C660,320,600,320,540,320C480,320,420,320,360,320C300,320,240,320,180,320C120,320,60,320,30,320L0,320Z"></path></svg>