<?xml version="1.0" standalone="no"?><svg xmlns="http://www.w3.org/2000/svg" viewBox="0 0 1440 320"><path fill="#2dd4bf" fill-opacity="1" d="M0,160L30,149.3C60,139,120,117,180,106.7C240,96,300,96,360,85.3C420,75,480,53,540,58.7C600,64,660,96,720,122.7C780,149,840,171,900,154.7C960,139,1020,85,1080,85.3C1140,85,1200,139,1260,144C1320,149,1380,107,1410,85.3L1440,64L1440,320L1410,320C1380,320,1320,320,1260,320C1200,320,1140,320,1080,320C1020,320,960,320,900,320C840,320,780,320,720,320C660,320,600,320,540,320C480,320,420,320,360,320C300,320,240,320,180,320C120,320,60,320,30,320L0,320Z"></path></svg>